<svg xmlns="http://www.w3.org/2000/svg" version="1.1" xmlns:xlink="http://www.w3.org/1999/xlink" xmlns:svgjs="http://svgjs.dev/svgjs" viewBox="0 0 800 800"><defs><linearGradient x1="50%" y1="0%" x2="50%" y2="100%" id="cccoil-grad"><stop stop-color="hsl(206, 75%, 49%)" stop-opacity="1" offset="0%"></stop><stop stop-color="hsl(331, 90%, 56%)" stop-opacity="1" offset="100%"></stop></linearGradient></defs><g stroke="url(#cccoil-grad)" fill="none" stroke-linecap="round">
    <circle r="363" cx="400" cy="400" stroke-width="7" stroke-dasharray="1 2279" opacity="0.05" transform="rotate(360, 400, 400)"></circle>
    <circle r="346.5" cx="400" cy="400" stroke-width="7" stroke-dasharray="3 2176" opacity="0.10" transform="rotate(343, 400, 400)"></circle>
    <circle r="330" cx="400" cy="400" stroke-width="7" stroke-dasharray="5 2073" opacity="0.14" transform="rotate(326, 400, 400)"></circle>
    <circle r="313.5" cx="400" cy="400" stroke-width="7" stroke-dasharray="7 1969" opacity="0.19" transform="rotate(309, 400, 400)"></circle>
    <circle r="297" cx="400" cy="400" stroke-width="7" stroke-dasharray="9 1866" opacity="0.23" transform="rotate(291, 400, 400)"></circle>
    <circle r="280.5" cx="400" cy="400" stroke-width="7" stroke-dasharray="11 1762" opacity="0.28" transform="rotate(274, 400, 400)"></circle>
    <circle r="264" cx="400" cy="400" stroke-width="7" stroke-dasharray="13 1659" opacity="0.33" transform="rotate(257, 400, 400)"></circle>
    <circle r="247.5" cx="400" cy="400" stroke-width="7" stroke-dasharray="15 1555" opacity="0.37" transform="rotate(240, 400, 400)"></circle>
    <circle r="231" cx="400" cy="400" stroke-width="7" stroke-dasharray="17 1452" opacity="0.42" transform="rotate(223, 400, 400)"></circle>
    <circle r="214.5" cx="400" cy="400" stroke-width="7" stroke-dasharray="19 1348" opacity="0.46" transform="rotate(206, 400, 400)"></circle>
    <circle r="198" cx="400" cy="400" stroke-width="7" stroke-dasharray="21 1245" opacity="0.51" transform="rotate(189, 400, 400)"></circle>
    <circle r="181.5" cx="400" cy="400" stroke-width="7" stroke-dasharray="23 1141" opacity="0.56" transform="rotate(171, 400, 400)"></circle>
    <circle r="165" cx="400" cy="400" stroke-width="7" stroke-dasharray="25 1038" opacity="0.60" transform="rotate(154, 400, 400)"></circle>
    <circle r="148.5" cx="400" cy="400" stroke-width="7" stroke-dasharray="27 934" opacity="0.65" transform="rotate(137, 400, 400)"></circle>
    <circle r="132" cx="400" cy="400" stroke-width="7" stroke-dasharray="29 831" opacity="0.69" transform="rotate(120, 400, 400)"></circle>
    <circle r="115.5" cx="400" cy="400" stroke-width="7" stroke-dasharray="31 727" opacity="0.74" transform="rotate(103, 400, 400)"></circle>
    <circle r="99" cx="400" cy="400" stroke-width="7" stroke-dasharray="33 624" opacity="0.79" transform="rotate(86, 400, 400)"></circle>
    <circle r="82.5" cx="400" cy="400" stroke-width="7" stroke-dasharray="35 520" opacity="0.83" transform="rotate(69, 400, 400)"></circle>
    <circle r="66" cx="400" cy="400" stroke-width="7" stroke-dasharray="37 417" opacity="0.88" transform="rotate(51, 400, 400)"></circle>
    <circle r="49.5" cx="400" cy="400" stroke-width="7" stroke-dasharray="39 313" opacity="0.92" transform="rotate(34, 400, 400)"></circle>
    <circle r="33" cx="400" cy="400" stroke-width="7" stroke-dasharray="41 210" opacity="0.97" transform="rotate(17, 400, 400)"></circle>
</g></svg>

